<svg width="1570" height="205" viewBox="0 0 1570 205" fill="none" xmlns="http://www.w3.org/2000/svg">
<path d="M294.516 0L259.22 203.907H316.383L337.304 45.8146H341.98L362.912 203.907H420.023L384.748 0H294.516Z" fill="#121212"/>
<path d="M1048.84 0L1013.52 203.907H1070.68L1091.58 45.8146H1096.28L1117.21 203.907H1174.34L1139.06 0H1048.84Z" fill="#121212"/>
<path d="M1534.71 0H1444.49L1409.21 203.907H1466.34L1487.24 45.8146H1491.96L1512.87 203.907H1570L1534.71 0Z" fill="#121212"/>
<path d="M133.451 0.189209L115.482 111.794H111.279L94.1091 0.189209H4.45537L0 204.148H53.0651L53.7271 50.4382H57.8777L86.018 204.106H141.857L169.672 50.5117H173.381L174.652 204.148H228.022L222.285 0.189209H133.451Z" fill="#121212"/>
<path d="M485.69 0H431.395V45.8146H485.69V204.169H542.674V45.8146H596.979V0H485.69Z" fill="#121212"/>
<path d="M894.865 0H837.88V204.169H980.662V158.355H894.865V0Z" fill="#121212"/>
<path d="M745.697 0H640.04V204.169H697.046V125.538H745.697C762.345 125.538 778.31 118.925 790.082 107.154C801.853 95.3822 808.467 79.4166 808.467 62.7692C808.467 46.1217 801.853 30.1562 790.082 18.3847C778.31 6.61316 762.345 0 745.697 0ZM736.24 79.7237H697.046V45.8146H736.251C740.674 45.9247 744.88 47.7594 747.969 50.9269C751.059 54.0945 752.788 58.3442 752.788 62.7692C752.788 67.1941 751.059 71.4438 747.969 74.6114C744.88 77.779 740.664 79.6136 736.24 79.7237Z" fill="#121212"/>
<path d="M1213.92 40.7708H1324.71L1213.92 158.144V203.907H1367.9V163.104H1272.28L1367.9 66.4312V0H1213.92V40.7708Z" fill="#121212"/>
</svg>
