<svg width="244" height="32" viewBox="0 0 244 32" fill="none" xmlns="http://www.w3.org/2000/svg">
<path d="M45.581 0L40.123 31.5312H48.962L52.196 7.08496H52.92L56.155 31.5312H64.988L59.534 0H45.581Z" fill="white"/>
<path d="M162.376 0L156.915 31.5312H165.752L168.984 7.08496H169.712L172.948 31.5312H181.782L176.323 0H162.376Z" fill="white"/>
<path d="M237.585 0H223.633L218.176 31.5312H227.008L230.24 7.08496H230.97L234.204 31.5312H243.037L237.585 0Z" fill="white"/>
<path d="M20.644 0.0288086L17.865 17.2871H17.215L14.554 0.0288086H0.690002L0 31.5679H8.20801L8.30801 7.8042H8.94901L13.3 31.561H21.941L26.235 7.81104H26.808L27.008 31.5679H35.261L34.374 0.0288086H20.644Z" fill="white"/>
<path d="M75.1803 0H66.7803V7.08496H75.1803V31.5718H83.9922V7.08496H92.3923V0H75.1823H75.1803Z" fill="white"/>
<path d="M138.528 0H129.715V31.5718H151.794V24.4878H138.528V0Z" fill="white"/>
<path d="M115.423 0H99.0859V31.5718H107.901V19.4141H115.423C117.997 19.4141 120.466 18.3912 122.287 16.5708C124.107 14.7504 125.13 12.2815 125.13 9.70703C125.13 7.13258 124.107 4.66368 122.287 2.84326C120.466 1.02285 117.997 0 115.423 0ZM113.963 12.3281H107.901V7.08496H113.963C114.649 7.09837 115.303 7.38044 115.784 7.87061C116.264 8.36077 116.534 9.02001 116.534 9.70654C116.534 10.3931 116.264 11.0523 115.784 11.5425C115.303 12.0326 114.649 12.3147 113.963 12.3281Z" fill="white"/>
<path d="M187.941 6.30518H205.074L187.941 24.4551V31.5312H211.753V25.2202H196.97L211.753 10.272V0H187.941V6.30518Z" fill="white"/>
</svg>
